<svg xmlns="http://www.w3.org/2000/svg" xmlns:xlink="http://www.w3.org/1999/xlink" viewBox="0 0 127 121.34"><defs><style>.cls-1{fill:none;}.cls-2{clip-path:url(#clip-path);}.cls-3{fill:#dea8a5;}.cls-4{fill:#c4878f;}</style><clipPath id="clip-path" transform="translate(0.02 0.02)"><rect class="cls-1" width="126.95" height="121.3"/></clipPath></defs><g id="Layer_2" data-name="Layer 2"><g id="Layer_1-2" data-name="Layer 1"><g class="cls-2"><path class="cls-3" d="M41.41,33.27,63.52,63.71,85.63,33.27a15.6,15.6,0,0,0,0-18.31L76.32,2.12a5.16,5.16,0,0,0-7.91-.52L65.83,4.33a3.29,3.29,0,0,1-4.76,0L58.53,1.6a5.12,5.12,0,0,0-7.9.52L41.31,15a15.76,15.76,0,0,0,.1,18.31" transform="translate(0.02 0.02)"/></g><g class="cls-2"><path class="cls-4" d="M55.19,44.84l8.38,18.82,8.37-18.82a12.25,12.25,0,0,0,.14-9.65l-3.43-8.46a1.61,1.61,0,0,0-2.82-.29l-1,1.51a1.53,1.53,0,0,1-2.49,0l-1-1.51a1.61,1.61,0,0,0-2.82.29L55,35.19a12.51,12.51,0,0,0,.19,9.65" transform="translate(0.02 0.02)"/></g><g class="cls-2"><path class="cls-3" d="M27.71,75.33,63.52,63.71,41.41,33.27A15.59,15.59,0,0,0,24,27.62L8.89,32.51A5.15,5.15,0,0,0,6,39.9l1.78,3.25A3.2,3.2,0,0,1,6.3,47.62l-3.38,1.6A5.11,5.11,0,0,0,1,56.89L10.3,69.73a15.59,15.59,0,0,0,17.41,5.6" transform="translate(0.02 0.02)"/></g><g class="cls-2"><path class="cls-3" d="M63.8,101.16V63.52L28,75.14A15.59,15.59,0,0,0,17.22,90v15.86a5.11,5.11,0,0,0,6.12,5l3.62-.7a3.2,3.2,0,0,1,3.81,2.77l.47,3.72a5.14,5.14,0,0,0,6.68,4.24L53,116A15.6,15.6,0,0,0,63.8,101.16" transform="translate(0.02 0.02)"/></g><g class="cls-2"><path class="cls-4" d="M59.19,83.85l4.33-20.14L45.69,74.06a12.32,12.32,0,0,0-5.79,7.67l-2.21,8.85a1.61,1.61,0,0,0,2.12,1.92l1.69-.61a1.52,1.52,0,0,1,2,1.46l0,1.84A1.63,1.63,0,0,0,46,96.6l7.72-4.85a12.24,12.24,0,0,0,5.5-7.9" transform="translate(0.02 0.02)"/></g><g class="cls-2"><path class="cls-3" d="M99.23,75.47,63.43,63.85,85.54,33.41A15.59,15.59,0,0,1,103,27.76l15.1,4.89A5.16,5.16,0,0,1,121,40l-1.79,3.25a3.22,3.22,0,0,0,1.46,4.47l3.39,1.6A5.15,5.15,0,0,1,126,57l-9.32,12.84a15.8,15.8,0,0,1-17.46,5.6" transform="translate(0.02 0.02)"/></g><g class="cls-2"><path class="cls-4" d="M84,65.83,63.57,63.71,78.91,49.92A12,12,0,0,1,88,46.82l9.08.66a1.61,1.61,0,0,1,1.17,2.58l-1.12,1.46a1.49,1.49,0,0,0,.75,2.35l1.74.52a1.62,1.62,0,0,1,.61,2.78l-7,5.83A12.44,12.44,0,0,1,84,65.83" transform="translate(0.02 0.02)"/></g><g class="cls-2"><path class="cls-3" d="M63.52,101.35V63.71L99.33,75.33A15.53,15.53,0,0,1,110.1,90.15V106a5.12,5.12,0,0,1-6.12,5l-3.62-.7a3.23,3.23,0,0,0-3.81,2.77l-.47,3.72a5.14,5.14,0,0,1-6.68,4.23l-15.1-4.89a15.67,15.67,0,0,1-10.78-14.82" transform="translate(0.02 0.02)"/></g><g class="cls-2"><path class="cls-4" d="M67.85,83.85,63.52,63.71,81.35,74.06a12.32,12.32,0,0,1,5.79,7.67l2.21,8.85a1.61,1.61,0,0,1-2.12,1.92l-1.69-.61a1.52,1.52,0,0,0-2,1.46l0,1.84a1.62,1.62,0,0,1-2.49,1.41l-7.72-4.85a12.38,12.38,0,0,1-5.5-7.9" transform="translate(0.02 0.02)"/></g><g class="cls-2"><path class="cls-4" d="M63.52,20.28a1.84,1.84,0,0,1-1.83-1.84V12.7a1.83,1.83,0,0,1,1.83-1.83A1.91,1.91,0,0,1,65.4,12.7v5.79a1.83,1.83,0,0,1-1.88,1.79" transform="translate(0.02 0.02)"/></g><g class="cls-2"><path class="cls-4" d="M20.47,51.57a1.15,1.15,0,0,1-.57-.1l-5.46-1.78a1.84,1.84,0,1,1,1.18-3.48L21.13,48a1.88,1.88,0,0,1,1.17,2.36,2,2,0,0,1-1.83,1.22" transform="translate(0.02 0.02)"/></g><g class="cls-2"><path class="cls-4" d="M33.5,106.9a2.2,2.2,0,0,1-1.08-.33A1.82,1.82,0,0,1,32,104l3.38-4.65a1.85,1.85,0,1,1,3,2.16L35,106.15a1.89,1.89,0,0,1-1.51.75" transform="translate(0.02 0.02)"/></g><g class="cls-2"><path class="cls-4" d="M93.54,106.9a2,2,0,0,1-1.51-.75l-3.38-4.66a1.85,1.85,0,1,1,3-2.16L95,104a1.82,1.82,0,0,1-.42,2.59,2.2,2.2,0,0,1-1.08.33" transform="translate(0.02 0.02)"/></g><g class="cls-2"><path class="cls-4" d="M106.57,51.57a1.77,1.77,0,0,1-1.74-1.27A1.88,1.88,0,0,1,106,48l5.46-1.79a1.88,1.88,0,0,1,2.35,1.17,1.81,1.81,0,0,1-1.18,2.31l-5.5,1.79a.8.8,0,0,1-.57.14" transform="translate(0.02 0.02)"/></g><g class="cls-2"><path class="cls-4" d="M33.83,63l-7-5.83a1.6,1.6,0,0,1,.61-2.78l1.74-.52A1.48,1.48,0,0,0,30,51.52l-1.13-1.46A1.59,1.59,0,0,1,30,47.48l9.08-.66a12.26,12.26,0,0,1,9.08,3.1L63.52,63.71,43.05,65.83A12.31,12.31,0,0,1,33.83,63" transform="translate(0.02 0.02)"/></g></g></g></svg>